<svg xmlns="http://www.w3.org/2000/svg" width="300" height="600" fill="none" viewBox="0 0 300 600">
    <mask id="awik1apl7a" width="809" height="632" x="-212" y="0" maskUnits="userSpaceOnUse">
        <path fill="#2A2C6B" d="M-212 0H596.874V632H-212z"/>
    </mask>
    <g mask="url(#awik1apl7a)">
        <path fill="#3DB17E" d="M134.687 345.304L15.556 589.611C-68.726 762.453 3.022 970.922 175.791 1055.23l152.546-312.821-193.65-397.105z"/>
        <path fill="#34937D" d="M328.333 742.415l193.645-397.11-193.645-397.11-193.645 397.11 193.645 397.11z"/>
        <path fill="#FFCA05" d="M-299.56 249.012l193.645-397.11 240.602 493.407L15.556 589.616c-49.672 101.861-45.105 216.078 2.349 309.983L-299.56 249.012z"/>
        <path fill="#F48A71" d="M134.687 345.305l193.645-397.11-315.04-646.052c-.456-.933-1.009-1.787-1.473-2.716 46.567 93.544 50.783 206.893 1.444 308.074l-119.178 244.401 240.602 493.403z"/>
    </g>
    <path fill="#5255BB" d="M0 0H300V600H0z" opacity=".7"/>
</svg>
